

Track List:

Let Me Entertain You
Let Love Be Your Energy
We Will Rock You
Monsoon
Come Undone
Strong
Me and My Monkey
Hot Fuge
Mr Bojangles
She's The One
Superme
No Regrets
Kids
Better Man
Man's Song
Feel
Rock DJ
Angels


Total time: 1.55:13


Format/Info                      : Advanced Video Codec
Format profile                   : High@L3.0
Format settings, CABAC           : Yes
Format settings, ReFrames        : 4 frames
Codec ID                         : H264
Duration                         : 1h 55mn
Bit rate                         : 2 500 Kbps
Width                            : 720 pixels
Height                           : 576 pixels
Display aspect ratio             : 16:9
Frame rate mode                  : Variable
Frame rate                       : 25.000 fps
Standard                         : PAL
Color space                      : YUV
Chroma subsampling               : 4:2:0
Bit depth                        : 8 bits
Scan type                        : Progressive
Bits/(Pixel*Frame)               : 0.241
Stream size                      : 2.01 GiB (90%)
Writing library                  : x264 core 93 r1542 5b86182

Audio
ID                               : 1
Format                           : AC-3
Format/Info                      : Audio Coding 3
Mode extension                   : CM (complete main)
Codec ID                         : 2000
Duration                         : 1h 55mn
Bit rate mode                    : Constant
Bit rate                         : 256 Kbps
Channel(s)                       : 2 channels
Channel positions                : Front: L R
Sampling rate                    : 48.0 KHz
Bit depth                        : 16 bits
Stream size                      : 211 MiB (9%)
Alignment                        : Aligned on interleaves
Interleave, duration             : 40 ms (1.00 video frame)
